<svg width="40" height="40" viewBox="0 0 40 40" fill="none" xmlns="http://www.w3.org/2000/svg">
<g clip-path="url(#clip0_247_1962)">
<path d="M13.6392 21.3456C13.6392 22.6911 14.7401 23.792 15.9633 23.792C17.1866 23.792 18.2875 22.6911 18.2875 21.3456C18.2875 20 17.1866 18.8991 15.9633 18.8991C14.7401 18.8991 13.6392 20 13.6392 21.3456Z" fill="white"/>
<path d="M21.7125 21.3456C21.7125 22.6911 22.8134 23.792 24.0367 23.792C25.2599 23.792 26.3608 22.6911 26.3608 21.3456C26.3608 20 25.2599 18.8991 24.0367 18.8991C22.8134 18.8991 21.7125 20 21.7125 21.3456Z" fill="white"/>
<path fill-rule="evenodd" clip-rule="evenodd" d="M20 0C31.0457 0 40 8.9543 40 20C40 31.0457 31.0457 40 20 40C8.9543 40 0 31.0457 0 20C0 8.9543 8.9543 0 20 0ZM23.6698 10.8257C25.9939 10.948 28.1957 11.682 30.0306 13.1499C32.1101 17.0643 33.211 21.468 33.3333 25.9939C31.4985 27.9511 28.9297 29.1744 26.2385 29.1744C26.2385 29.1744 25.3822 28.1958 24.7707 27.3395C26.3608 26.9725 27.8288 26.1162 28.8073 24.7707L28.8057 24.7717C27.95 25.2606 27.0943 25.7495 26.2385 26.1162C25.1376 26.6055 24.0367 26.8502 22.9357 27.0949L22.9338 27.0951C21.9559 27.2173 20.9779 27.3395 20 27.3395C19.0221 27.3395 18.0441 27.2173 17.0662 27.0951L17.0642 27.0949C15.9633 26.8502 14.8624 26.6055 13.7615 26.1162C12.9057 25.7495 12.05 25.2606 11.1943 24.7717L11.1927 24.7707C12.1713 26.1162 13.6392 26.9725 15.2293 27.3395C14.6177 28.1958 13.7615 29.1744 13.7615 29.1744C11.0703 29.1744 8.5015 27.9511 6.66667 25.9939C6.78899 21.468 7.88991 17.0643 9.96942 13.1499C11.8042 11.682 14.0061 10.948 16.3302 10.8257L16.6972 11.1927C14.6177 11.682 12.7828 12.6605 11.0703 14.0061C13.1498 12.9052 15.474 12.1713 17.9205 11.9266C18.6544 11.8043 19.2661 11.8043 20 11.8043C20.7339 11.8043 21.3456 11.8043 22.0795 11.9266C24.526 12.1713 26.8502 12.9052 28.9297 14.0061C27.2172 12.6605 25.3822 11.682 23.3027 11.1927L23.6698 10.8257Z" fill="white"/>
</g>
<defs>
<clipPath id="clip0_247_1962">
<rect width="40" height="40" fill="white"/>
</clipPath>
</defs>
</svg>
