<svg width="40" height="40" viewBox="0 0 40 40" fill="none" xmlns="http://www.w3.org/2000/svg">
<g clip-path="url(#clip0_247_1971)">
<path d="M20 0C31.0457 0 40 8.9543 40 20C40 30.6142 31.7316 39.2973 21.2844 39.9594C22.9843 39.8515 24.6268 39.5309 26.1854 39.024C25.2834 39.1345 24.9587 38.547 24.9587 38.0385C24.9587 37.8219 24.9615 37.4421 24.9651 36.9343L24.9652 36.9271C24.9726 35.895 24.9837 34.3375 24.9837 32.5484C24.9837 30.6807 24.3437 29.46 23.6262 28.842C28.0812 28.3468 32.7575 26.6541 32.7575 18.9665C32.7575 16.7811 31.9837 14.995 30.7012 13.5952C30.9075 13.0888 31.5937 11.0548 30.5025 8.29912C30.5025 8.29912 28.8262 7.76118 25.0087 10.3505C23.4112 9.90638 21.7 9.68488 20.0012 9.67622C18.3 9.68521 16.59 9.90638 14.9937 10.3505C11.1737 7.76118 9.49375 8.29912 9.49375 8.29912C8.40625 11.0548 9.0925 13.0888 9.29875 13.5952C8.01875 14.995 7.24 16.7811 7.24 18.9665C7.24 26.6355 11.9087 28.3517 16.35 28.857C15.7787 29.3572 15.2612 30.2393 15.08 31.5326C13.94 32.0456 11.0437 32.9287 9.25875 29.8702C9.25875 29.8702 8.2025 27.949 6.19625 27.8075C6.19625 27.8075 4.2425 27.7824 6.05875 29.0245C6.05875 29.0245 7.37 29.6401 8.27875 31.9515C8.27875 31.9515 9.4525 35.8441 15.0163 34.6346C15.0214 35.4922 15.0285 36.2412 15.0342 36.8314L15.0349 36.9093C15.04 37.4292 15.0437 37.8179 15.0437 38.0382C15.0437 38.5444 14.7111 39.1306 13.8107 39.0227C15.435 39.5513 17.1503 39.8776 18.927 39.9717C8.38018 39.4141 0 30.6857 0 20C0 8.9543 8.9543 0 20 0Z" fill="white"/>
</g>
<defs>
<clipPath id="clip0_247_1971">
<rect width="40" height="40" fill="white"/>
</clipPath>
</defs>
</svg>
